<svg width="13" height="17" viewBox="0 0 13 17" fill="none" xmlns="http://www.w3.org/2000/svg">
<path d="M3.66663 2.83341V11.3334C3.66663 11.7091 3.81588 12.0695 4.08156 12.3351C4.34723 12.6008 4.70757 12.7501 5.08329 12.7501H10.75C11.1257 12.7501 11.486 12.6008 11.7517 12.3351C12.0174 12.0695 12.1666 11.7091 12.1666 11.3334V5.12983C12.1666 4.9411 12.1289 4.75428 12.0556 4.58034C11.9824 4.40639 11.8752 4.24884 11.7402 4.11691L9.39208 1.8205C9.12742 1.56171 8.77199 1.41679 8.40183 1.41675H5.08329C4.70757 1.41675 4.34723 1.566 4.08156 1.83168C3.81588 2.09736 3.66663 2.45769 3.66663 2.83341V2.83341Z" stroke="#56CCF2" stroke-width="1.41667" stroke-linecap="round" stroke-linejoin="round"/>
<path d="M9.33337 12.7499V14.1666C9.33337 14.5423 9.18412 14.9026 8.91844 15.1683C8.65276 15.434 8.29243 15.5833 7.91671 15.5833H2.25004C1.87432 15.5833 1.51398 15.434 1.24831 15.1683C0.982629 14.9026 0.833374 14.5423 0.833374 14.1666V6.37492C0.833374 5.9992 0.982629 5.63886 1.24831 5.37318C1.51398 5.10751 1.87432 4.95825 2.25004 4.95825H3.66671" stroke="#56CCF2" stroke-width="1.41667" stroke-linecap="round" stroke-linejoin="round"/>
</svg>
