<svg width="38" height="41" viewBox="0 0 38 41" fill="none" xmlns="http://www.w3.org/2000/svg">
<path d="M14.3846 3.81101L19.3913 0.890442V2.4759L14.4681 5.39647L14.3846 3.81101Z" fill="#F39F18"/>
<path d="M0.699707 11.488L5.7064 8.56741V10.1529L0.699707 13.0734V11.488Z" fill="#F39F18"/>
<path d="M0.699707 30.5134L5.7064 27.5929V29.1783L0.699707 32.0989V30.5134Z" fill="#F39F18"/>
<path d="M0.699707 15.1595L5.7064 12.239V13.8244L0.699707 16.745V15.1595Z" fill="#F39F18"/>
<path d="M0.699707 34.3518L5.7064 31.4313V33.0167L0.699707 35.9373V34.3518Z" fill="#F39F18"/>
<path d="M0.699707 18.6642L5.7064 15.7437V17.3291L0.699707 20.2497V18.6642Z" fill="#F39F18"/>
<path d="M0.699707 38.0234L5.7064 35.1029V36.6883L0.699707 39.6089V38.0234Z" fill="#F39F18"/>
<path d="M14.3846 22.6695L19.3913 19.749V21.3344L14.4681 24.255L14.3846 22.6695Z" fill="#F39F18"/>
<path d="M14.3846 7.14878L19.3913 4.22821V5.81366L14.4681 8.73424L14.3846 7.14878Z" fill="#F39F18"/>
<path d="M14.3846 26.508L19.3913 23.5874V25.1729L14.4681 28.0935L14.3846 26.508Z" fill="#F39F18"/>
<path d="M14.3846 10.6535L19.3913 7.73294V9.31839L14.4681 12.239L14.3846 10.6535Z" fill="#F39F18"/>
<path d="M14.3846 30.3465L19.3913 27.4259V29.0114L14.4681 31.9319L14.3846 30.3465Z" fill="#F39F18"/>
<path d="M0.949829 22.0854L19.3912 11.321V13.4906L0.949829 24.0881V22.0854Z" fill="#F39F18"/>
<path d="M1.09082 26.1263L19.5322 15.3619V17.5315L1.09082 28.129V26.1263Z" fill="#F39F18"/>
<path fill-rule="evenodd" clip-rule="evenodd" d="M19.3912 0.890442L37.7491 11.4879V16.9119L32.9093 19.8324L37.7491 22.753V27.9266L32.2418 31.0975L37.9995 34.3519V40.1096L19.3912 29.1783V0.890442ZM24.2309 14.9926V9.15146L32.7423 14.0747L27.8191 16.9118L24.2309 14.9926ZM24.2309 20.1662L32.5754 25.006L27.4018 28.3438L24.2309 26.508V20.1662Z" fill="#F39F18"/>
</svg>
