<svg width="18" height="15" viewBox="0 0 18 15" fill="none" xmlns="http://www.w3.org/2000/svg">
<path d="M15.875 2.84375H13.2188L12.5859 1.07031C12.5422 0.948961 12.4621 0.844066 12.3565 0.769956C12.251 0.695846 12.1251 0.656136 11.9961 0.65625H6.00391C5.74023 0.65625 5.50391 0.822266 5.41602 1.07031L4.78125 2.84375H2.125C1.26172 2.84375 0.5625 3.54297 0.5625 4.40625V13.3125C0.5625 14.1758 1.26172 14.875 2.125 14.875H15.875C16.7383 14.875 17.4375 14.1758 17.4375 13.3125V4.40625C17.4375 3.54297 16.7383 2.84375 15.875 2.84375ZM16.0312 13.3125C16.0312 13.3984 15.9609 13.4687 15.875 13.4687H2.125C2.03906 13.4687 1.96875 13.3984 1.96875 13.3125V4.40625C1.96875 4.32031 2.03906 4.25 2.125 4.25H5.77148L6.10547 3.31641L6.55273 2.0625H11.4453L11.8926 3.31641L12.2266 4.25H15.875C15.9609 4.25 16.0312 4.32031 16.0312 4.40625V13.3125ZM9 5.5C7.27344 5.5 5.875 6.89844 5.875 8.625C5.875 10.3516 7.27344 11.75 9 11.75C10.7266 11.75 12.125 10.3516 12.125 8.625C12.125 6.89844 10.7266 5.5 9 5.5ZM9 10.5C7.96484 10.5 7.125 9.66015 7.125 8.625C7.125 7.58984 7.96484 6.75 9 6.75C10.0352 6.75 10.875 7.58984 10.875 8.625C10.875 9.66015 10.0352 10.5 9 10.5Z" fill="#56CCF2"/>
</svg>
