<svg width="12" height="16" viewBox="0 0 12 16" fill="none" xmlns="http://www.w3.org/2000/svg">
<path d="M2.39998 0.800049C1.92259 0.800049 1.46475 0.989691 1.12718 1.32726C0.789618 1.66482 0.599976 2.12266 0.599976 2.60005V13.4C0.599976 13.8774 0.789618 14.3353 1.12718 14.6728C1.46475 15.0104 1.92259 15.2 2.39998 15.2H9.59998C10.0774 15.2 10.5352 15.0104 10.8728 14.6728C11.2103 14.3353 11.4 13.8774 11.4 13.4V5.67265C11.3997 5.31473 11.2572 4.97158 11.004 4.71865L7.48138 1.19515C7.2283 0.942232 6.88517 0.800125 6.52738 0.800049H2.39998ZM1.49998 2.60005C1.49998 2.36135 1.5948 2.13244 1.76358 1.96365C1.93236 1.79487 2.16128 1.70005 2.39998 1.70005H5.99998V4.85005C5.99998 5.20809 6.14221 5.55147 6.39538 5.80464C6.64856 6.05782 6.99193 6.20005 7.34998 6.20005H10.5V13.4C10.5 13.6387 10.4052 13.8677 10.2364 14.0364C10.0676 14.2052 9.83867 14.3 9.59998 14.3H2.39998C2.16128 14.3 1.93236 14.2052 1.76358 14.0364C1.5948 13.8677 1.49998 13.6387 1.49998 13.4V2.60005ZM10.3137 5.30005H7.34998C7.23063 5.30005 7.11617 5.25264 7.03178 5.16825C6.94739 5.08386 6.89998 4.9694 6.89998 4.85005V1.88635L10.3137 5.30005Z" fill="#56CCF2"/>
</svg>
