<svg width="20" height="15" viewBox="0 0 20 15" fill="none" xmlns="http://www.w3.org/2000/svg">
<path d="M0.833679 9.83338V6.16671C0.833679 5.9236 0.930256 5.69044 1.10216 5.51853C1.27407 5.34662 1.50723 5.25005 1.75035 5.25005H4.2226C4.40367 5.25009 4.58069 5.1965 4.73135 5.09604L8.57493 2.53304C8.71311 2.44085 8.87374 2.38794 9.03966 2.37996C9.20558 2.37199 9.37055 2.40925 9.51694 2.48776C9.66333 2.56627 9.78563 2.68308 9.87077 2.82572C9.95592 2.96835 10.0007 3.13143 10.0003 3.29755V12.7025C10.0004 12.8685 9.95534 13.0314 9.87006 13.1737C9.78479 13.3161 9.66246 13.4326 9.51613 13.5109C9.3698 13.5892 9.20497 13.6263 9.03921 13.6183C8.87345 13.6102 8.71298 13.5573 8.57493 13.4652L4.73135 10.9031C4.58059 10.803 4.40357 10.7497 4.2226 10.75H1.75035C1.50723 10.75 1.27407 10.6535 1.10216 10.4816C0.930256 10.3097 0.833679 10.0765 0.833679 9.83338V9.83338Z" stroke="#56CCF2" stroke-width="1.375"/>
<path d="M16.8754 1.125C16.8754 1.125 19.167 3.41667 19.167 7.54167C19.167 11.6667 16.8754 13.9583 16.8754 13.9583M14.1254 3.875C14.1254 3.875 15.5004 5.25 15.5004 7.54167C15.5004 9.83333 14.1254 11.2083 14.1254 11.2083V3.875Z" stroke="#56CCF2" stroke-width="1.375" stroke-linecap="round" stroke-linejoin="round"/>
</svg>
