<svg width="20" height="13" viewBox="0 0 20 13" fill="none" xmlns="http://www.w3.org/2000/svg">
<path d="M8.4875 3.41123C8.39405 3.35467 8.28408 3.32107 8.16965 3.3141C8.05522 3.30714 7.94074 3.32707 7.83876 3.37173C7.73678 3.41639 7.65122 3.48405 7.59147 3.56729C7.53172 3.65054 7.50007 3.74615 7.5 3.84367V9.15617C7.50007 9.25368 7.53172 9.3493 7.59147 9.43254C7.65122 9.51578 7.73678 9.58344 7.83876 9.6281C7.94074 9.67276 8.05522 9.6927 8.16965 9.68573C8.28408 9.67877 8.39405 9.64516 8.4875 9.5886L12.8625 6.93235C12.9435 6.88321 13.0096 6.81833 13.0551 6.74312C13.1007 6.6679 13.1245 6.58452 13.1245 6.49992C13.1245 6.41531 13.1007 6.33194 13.0551 6.25672C13.0096 6.1815 12.9435 6.11662 12.8625 6.06748L8.4875 3.41123Z" fill="#56CCF2"/>
<path d="M0 2.25C0 1.68641 0.263392 1.14591 0.732233 0.747398C1.20107 0.348883 1.83696 0.125 2.5 0.125H17.5C18.163 0.125 18.7989 0.348883 19.2678 0.747398C19.7366 1.14591 20 1.68641 20 2.25V10.75C20 11.3136 19.7366 11.8541 19.2678 12.2526C18.7989 12.6511 18.163 12.875 17.5 12.875H2.5C1.83696 12.875 1.20107 12.6511 0.732233 12.2526C0.263392 11.8541 0 11.3136 0 10.75V2.25ZM18.75 2.25C18.75 1.96821 18.6183 1.69796 18.3839 1.4987C18.1495 1.29944 17.8315 1.1875 17.5 1.1875H2.5C2.16848 1.1875 1.85054 1.29944 1.61612 1.4987C1.3817 1.69796 1.25 1.96821 1.25 2.25V10.75C1.25 11.0318 1.3817 11.302 1.61612 11.5013C1.85054 11.7006 2.16848 11.8125 2.5 11.8125H17.5C17.8315 11.8125 18.1495 11.7006 18.3839 11.5013C18.6183 11.302 18.75 11.0318 18.75 10.75V2.25Z" fill="#56CCF2"/>
</svg>
