<svg width="39" height="39" viewBox="0 0 39 39" fill="none" xmlns="http://www.w3.org/2000/svg">
<path d="M19.5 0L23.0191 4.082L27.9607 1.93111L29.3602 7.13573L34.7457 7.34195L33.7484 12.6383L38.5111 15.1608L35.3145 19.5L38.5111 23.8392L33.7484 26.3617L34.7457 31.6581L29.3602 31.8643L27.9607 37.0689L23.0191 34.918L19.5 39L15.9809 34.918L11.0393 37.0689L9.63982 31.8643L4.25429 31.6581L5.25163 26.3617L0.488905 23.8392L3.6855 19.5L0.488905 15.1608L5.25163 12.6383L4.25429 7.34195L9.63982 7.13573L11.0393 1.93111L15.9809 4.082L19.5 0Z" fill="#BB5D48"/>
<path d="M17.7603 19.7705H19.2378C20.5908 19.7705 21.4126 20.4346 21.4126 21.5303C21.4126 22.543 20.5327 23.2485 19.2793 23.2485C17.9595 23.2485 17.1294 22.5845 17.0547 21.5718H14.6558C14.772 23.7798 16.54 25.2656 19.2461 25.2656C22.0103 25.2656 23.9609 23.8379 23.9609 21.688C23.9609 20.0278 22.8071 18.9487 21.0225 18.7993V18.7495C22.4917 18.4839 23.4961 17.4214 23.4961 15.9521C23.4961 14.0347 21.7944 12.7563 19.3042 12.7563C16.7061 12.7563 14.9795 14.2007 14.8882 16.417H17.1958C17.2622 15.3711 18.0342 14.6821 19.1963 14.6821C20.4414 14.6821 21.1304 15.3213 21.1304 16.2925C21.1304 17.2803 20.3584 17.9609 19.2129 17.9609H17.7603V19.7705Z" fill="black"/>
</svg>
