<svg width="39" height="39" viewBox="0 0 39 39" fill="none" xmlns="http://www.w3.org/2000/svg">
<path d="M19.5 0L23.0191 4.082L27.9607 1.93111L29.3602 7.13573L34.7457 7.34195L33.7484 12.6383L38.5111 15.1608L35.3145 19.5L38.5111 23.8392L33.7484 26.3617L34.7457 31.6581L29.3602 31.8643L27.9607 37.0689L23.0191 34.918L19.5 39L15.9809 34.918L11.0393 37.0689L9.63982 31.8643L4.25429 31.6581L5.25163 26.3617L0.488905 23.8392L3.6855 19.5L0.488905 15.1608L5.25163 12.6383L4.25429 7.34195L9.63982 7.13573L11.0393 1.93111L15.9809 4.082L19.5 0Z" fill="#E1E1E1"/>
<path d="M14.7056 16.6245V16.666H17.0298V16.6245C17.0298 15.5205 17.8848 14.707 19.0469 14.707C20.1592 14.707 20.9478 15.4209 20.9478 16.3174C20.9478 17.1475 20.5742 17.7534 19.3623 18.9653L14.8467 23.3149V25H23.5542V23.0078H18.1504V22.958L21.0723 20.144C22.3921 18.8325 23.3882 17.7119 23.3882 16.2178C23.3882 14.2173 21.6533 12.7563 19.1299 12.7563C16.5151 12.7563 14.7056 14.3584 14.7056 16.6245Z" fill="black"/>
</svg>
