<svg width="19" height="19" viewBox="0 0 19 19" fill="none" xmlns="http://www.w3.org/2000/svg">
<path fill-rule="evenodd" clip-rule="evenodd" d="M9.5 17.8C14.084 17.8 17.8 14.084 17.8 9.5C17.8 4.91604 14.084 1.2 9.5 1.2C4.91604 1.2 1.2 4.91604 1.2 9.5C1.2 14.084 4.91604 17.8 9.5 17.8ZM9.5 19C14.7467 19 19 14.7467 19 9.5C19 4.25329 14.7467 0 9.5 0C4.25329 0 0 4.25329 0 9.5C0 14.7467 4.25329 19 9.5 19Z" fill="#7A7A7A"/>
<path fill-rule="evenodd" clip-rule="evenodd" d="M8.40039 4H9.60039V9.25147L13.4247 13.0757L12.5761 13.9243L8.40039 9.74853V4Z" fill="#7A7A7A"/>
</svg>
