<svg width="20" height="20" viewBox="0 0 20 20" fill="none" xmlns="http://www.w3.org/2000/svg">
<path d="M10 20C4.47699 20 0 15.523 0 10C0 4.47699 4.47699 0 10 0C15.523 0 20 4.47699 20 10C20 15.523 15.523 20 10 20ZM10 1.08787C5.1046 1.08787 1.08786 5.1046 1.08786 10C1.08786 14.8954 5.1046 18.9121 10 18.9121C14.8954 18.9121 18.9121 14.8954 18.9121 10C18.9121 5.1046 14.8954 1.08787 10 1.08787Z" fill="#DC3838"/>
<path d="M9.41423 14.1421H10.5858V15.3136H9.41423V14.1421Z" fill="#DC3838"/>
<path d="M10.3347 12.9706H9.66527L9.41423 8.24253V4.68604H10.5858V8.24253L10.3347 12.9706Z" fill="#DC3838"/>
</svg>
