<svg width="20" height="20" viewBox="0 0 20 20" fill="none" xmlns="http://www.w3.org/2000/svg">
<path d="M10 20C4.48718 20 0 15.5128 0 10C0 4.48718 4.48718 0 10 0C15.5128 0 20 4.48718 20 10C20 15.5128 15.5128 20 10 20ZM10 1.06838C5.08547 1.06838 1.06838 5.08547 1.06838 10C1.06838 14.9145 5.08547 18.9316 10 18.9316C14.9145 18.9316 18.9316 14.9145 18.9316 10C18.9316 5.08547 14.9145 1.06838 10 1.06838Z" fill="#008D06"/>
<path d="M8.80342 14.3162L3.71794 9.18802L4.48718 8.41879L8.80342 12.7778L15.5128 6.06836L16.2821 6.83759L8.80342 14.3162Z" fill="#008D06"/>
</svg>
